<svg xmlns="http://www.w3.org/2000/svg" width="16" height="16" viewBox="0 0 16 16">
  <defs>
    <style>
      .cls-1 {
        fill: #f91c1e;
        fill-rule: evenodd;
      }
    </style>
  </defs>
  <path id="Фигура_4" data-name="Фигура 4" class="cls-1" d="M1342.8,63.8a1.6,1.6,0,1,0,1.6,1.6,1.6,1.6,0,0,0-1.6-1.6h0ZM1338,51v1.6h1.6l2.88,6.078-1.12,1.922a2.817,2.817,0,0,0-.16.8,1.6,1.6,0,0,0,1.6,1.6h9.6V61.4h-9.28a0.17,0.17,0,0,1-.16-0.16V61.16l0.72-1.359h5.92a1.459,1.459,0,0,0,1.36-.8l2.88-5.2a0.445,0.445,0,0,0,.16-0.4,0.755,0.755,0,0,0-.8-0.8h-11.84l-0.72-1.6H1338Zm12.8,12.8a1.6,1.6,0,1,0,1.6,1.6,1.6,1.6,0,0,0-1.6-1.6h0Zm0,0" transform="translate(-1338 -51)"/>
</svg>
