<svg xmlns="http://www.w3.org/2000/svg" width="267" height="57" viewBox="0 0 267 57">
  <defs>
    <style>
      .cls-1 {
        fill: #98bedb;
      }

      .cls-1, .cls-2, .cls-3, .cls-4, .cls-5 {
        fill-rule: evenodd;
      }

      .cls-2 {
        fill: #2c231a;
      }

      .cls-3 {
        fill: #2f89cf;
      }

      .cls-4 {
        fill: #6e6e6e;
      }

      .cls-5 {
        fill: #443e38;
      }
    </style>
  </defs>
  <path id="Прямоугольник_2" data-name="Прямоугольник 2" class="cls-1" d="M113.417,8.451h9.138l-6.527,27.588H87.305Z"/>
  <path id="autO" class="cls-2" d="M9.793,23.793H24L16.879,8.439H16.841Zm13.8,6.715H30.15V29.527L18.3,3.761H15.417L3.608,29.527v0.981h6.561l1.537-3.32H22.053Zm2.774-2.565H25.877l-1.725-3.735H9.643L7.881,27.942H7.394L16.729,7.609h0.225Zm-6.748-6.828H14.142l2.7-6.074Zm26.469,3.7c-1.949,0-4.011-1.094-4.011-3.207V4.1H35.738V21.718c0,5.81,4.986,9.167,10.347,9.167,5.4,0,10.347-3.357,10.347-9.167V4.1H50.059V21.6C50.059,23.717,48,24.811,46.085,24.811Zm0,3.244c-3.749,0-7.423-2.339-7.423-6.451V6.628h0.412V21.6c0,3.923,3.449,6.036,7.011,6.036S53.1,25.528,53.1,21.6V6.628h0.412V21.6C53.508,25.716,49.834,28.055,46.085,28.055ZM69.929,10.136V30.507h6.636V10.136h6.411V4.1H63.481v6.036h6.448ZM73.078,27.98V7.269H65.993V6.93H80.426v0.34H73.378c0.037,6.941.075,13.732,0.075,20.711H73.078ZM91.712,17.342c0-14.184,20.357-14.184,20.357,0S91.712,31.526,91.712,17.342Zm23.618,0c0-18.259-26.917-18.259-26.917,0C88.413,35.638,115.33,35.638,115.33,17.342Zm-20.019,0c0-9.507,13.159-9.507,13.159,0C108.47,26.924,95.311,26.961,95.311,17.342Zm16.383,0c0-13.505-19.607-13.769-19.607,0C92.087,31.149,111.694,30.847,111.694,17.342Z"/>
  <path id="drive" class="cls-3" d="M129.429,3.893l-5.836,27.548h10.928c11.788,0,16.253-8.631,16.253-16.473,0-5.636-3.368-11.074-10.888-11.074H129.429Zm2.663,21.045,3.094-14.582H138.4c4.191,0,5.13,2.759,5.13,5.715,0,4.217-3.094,8.867-8.224,8.867h-3.212Zm43.945-3.311a11.431,11.431,0,0,0,5.757-8.04c1.057-4.847-1.175-9.774-7.794-9.774-4.034-.039-7.99,0-12.063,0-2,9.261-3.838,18.365-5.835,27.627h7.167l1.841-8.67h3.759l3.055,8.67h7.4l0.234-.906ZM166.206,16.9l1.449-6.818h4.974c1.684,0,2.35,1.261,2.35,2.64,0,1.931-1.488,4.178-3.8,4.178h-4.974Zm31.725,8.71L201.3,9.687h3.172l1.253-5.833H192.252L191,9.687h3.173L190.8,25.609h-3.486c-0.509,2.286-.705,3.547-1.214,5.833h14.1c0.509-2.286.705-3.547,1.214-5.833h-3.485Zm23.578-6.345-0.784-7.212L219,3.854h-7.48l-0.235,1.064,6.266,26.8h3.329l17.154-26.8,0.235-1.064h-7.794l-5.091,8.2-3.76,7.212h-0.117Zm23.7-15.409-5.836,27.587h17.507l1.292-6.227h-10.3l1.057-4.847h9.165l1.331-6.306h-9.164l0.9-4.3h9.948l1.253-5.912H245.205Z"/>
  <path id="интернет-магазин_шин_и_дисков" data-name="интернет-магазин шин и дисков" class="cls-4" d="M5.066,48.865V44.427H3.591v7H4.746l3.562-4.452v4.452H9.782v-7H8.627Zm12.605-1.652H14.485V44.427h-1.5v7h1.5V48.641h3.186v2.786h1.5v-7h-1.5v2.786Zm3.965-2.786v1.456h2.282v5.544h1.5V45.883h2.268V44.427H21.636Zm14.97,4.144a4.72,4.72,0,0,0,.056-0.63,3.751,3.751,0,0,0-.981-2.618,3.244,3.244,0,0,0-2.511-1.078A3.529,3.529,0,0,0,30.526,45.3a3.613,3.613,0,0,0-1.03,2.625,3.575,3.575,0,0,0,1.043,2.639,3.706,3.706,0,0,0,2.741,1.043,3.437,3.437,0,0,0,3.047-1.526l-1.238-.728a2.035,2.035,0,0,1-1.795.868,2.447,2.447,0,0,1-1.461-.427,1.923,1.923,0,0,1-.765-1.225h5.537Zm-4.842-2.492a2.1,2.1,0,0,1,1.391-.462,1.938,1.938,0,0,1,1.99,1.722h-4.09A2.086,2.086,0,0,1,31.764,46.079Zm9.182-.644V44.427h-1.5v9.8h1.5V50.433a2.82,2.82,0,0,0,2.435,1.176,3.263,3.263,0,0,0,2.449-1.064,3.873,3.873,0,0,0,0-5.229,3.254,3.254,0,0,0-2.449-1.071,2.809,2.809,0,0,0-2.435,1.19h0Zm0,2.492a2.194,2.194,0,0,1,.626-1.6,2.259,2.259,0,0,1,3.144,0,2.365,2.365,0,0,1,0,3.206,2.259,2.259,0,0,1-3.144,0A2.193,2.193,0,0,1,40.947,47.927Zm13.412-.714H51.173V44.427h-1.5v7h1.5V48.641h3.186v2.786h1.5v-7h-1.5v2.786Zm11.422,1.358a4.734,4.734,0,0,0,.056-0.63,3.751,3.751,0,0,0-.981-2.618,3.244,3.244,0,0,0-2.511-1.078A3.529,3.529,0,0,0,59.7,45.3a3.614,3.614,0,0,0-1.029,2.625,3.576,3.576,0,0,0,1.043,2.639,3.707,3.707,0,0,0,2.741,1.043A3.437,3.437,0,0,0,65.5,50.083l-1.238-.728a2.035,2.035,0,0,1-1.795.868,2.448,2.448,0,0,1-1.461-.427,1.923,1.923,0,0,1-.765-1.225h5.537Zm-4.842-2.492a2.1,2.1,0,0,1,1.391-.462,1.938,1.938,0,0,1,1.989,1.722H60.23A2.087,2.087,0,0,1,60.939,46.079ZM67.6,44.427v1.456h2.282v5.544h1.5V45.883h2.268V44.427H67.6ZM80.96,47.9V46.443H75.812V47.9H80.96Zm8.876-3.472-2.017,3.234L85.8,44.427H84.271v7h1.461V46.835l1.99,3.192H87.9l2-3.206v4.606h1.461v-7h-1.53Zm10.24,0.994a2.82,2.82,0,0,0-2.435-1.176,3.263,3.263,0,0,0-2.449,1.064,3.873,3.873,0,0,0,0,5.229,3.253,3.253,0,0,0,2.449,1.071,2.809,2.809,0,0,0,2.435-1.19v1.008h1.5v-7h-1.5v0.994Zm-4.4,2.506a2.194,2.194,0,0,1,.626-1.6,2.259,2.259,0,0,1,3.144,0,2.365,2.365,0,0,1,0,3.206,2.259,2.259,0,0,1-3.144,0A2.193,2.193,0,0,1,95.68,47.927Zm9.112-3.5v7h1.5V45.883h3.158V44.427h-4.661Zm12.369,0.994a2.82,2.82,0,0,0-2.435-1.176,3.265,3.265,0,0,0-2.449,1.064,3.875,3.875,0,0,0,0,5.229,3.254,3.254,0,0,0,2.449,1.071,2.809,2.809,0,0,0,2.435-1.19v1.008h1.5v-7h-1.5v0.994Zm-4.4,2.506a2.2,2.2,0,0,1,.626-1.6,2.259,2.259,0,0,1,3.145,0,2.365,2.365,0,0,1,0,3.206,2.259,2.259,0,0,1-3.145,0A2.2,2.2,0,0,1,112.764,47.927Zm13.83-1.638a1.847,1.847,0,0,0-.689-1.449,3.077,3.077,0,0,0-4.5.973l1.225,0.7a1.451,1.451,0,0,1,1.446-.924,1.223,1.223,0,0,1,.78.231,0.727,0.727,0,0,1,.292.595,0.736,0.736,0,0,1-.258.595,1.076,1.076,0,0,1-.716.217h-0.738v1.33h0.988a1.133,1.133,0,0,1,.738.217,0.714,0.714,0,0,1,.264.581,0.767,0.767,0,0,1-.334.651,1.523,1.523,0,0,1-.918.245,1.549,1.549,0,0,1-1.628-1.05l-1.224.728a2.8,2.8,0,0,0,2.838,1.68,3.062,3.062,0,0,0,2.017-.6,1.874,1.874,0,0,0,.724-1.5,1.716,1.716,0,0,0-1.113-1.666,1.7,1.7,0,0,0,.807-1.554h0Zm4.466,2.576V44.427h-1.475v7h1.155l3.561-4.452v4.452h1.475v-7h-1.155Zm12.6-1.652h-3.186V44.427h-1.5v7h1.5V48.641h3.186v2.786h1.5v-7h-1.5v2.786ZM161.543,50h-2.616V44.427h-1.5V50h-2.615V44.427h-1.5v7h9.739v-7h-1.5V50Zm6.177-1.134V44.427h-1.475v7H167.4l3.562-4.452v4.452h1.474v-7h-1.154Zm12.6-1.652h-3.186V44.427h-1.5v7h1.5V48.641h3.186v2.786h1.5v-7h-1.5v2.786Zm11.116,1.652V44.427h-1.475v7h1.155l3.562-4.452v4.452h1.475v-7H195Zm18.977-4.438h-5.3v3.038a4.355,4.355,0,0,1-.64,2.534h-0.849v3.3H205.1V51.427h4.772V53.3h1.475V50h-0.933V44.427Zm-3.826,3.038V45.813h2.352V50h-2.811a6.244,6.244,0,0,0,.459-2.534h0Zm8.918,1.4V44.427h-1.474v7h1.154l3.562-4.452v4.452h1.475v-7h-1.155Zm13.051,2.254a3.325,3.325,0,0,0,1.28-1.33l-1.294-.742a1.917,1.917,0,0,1-.745.784,2.12,2.12,0,0,1-1.106.294,2.067,2.067,0,0,1-1.537-.63,2.3,2.3,0,0,1,0-3.136,2.067,2.067,0,0,1,1.537-.63,2.113,2.113,0,0,1,1.106.287,1.79,1.79,0,0,1,.717.791l1.294-.756a3.165,3.165,0,0,0-1.252-1.316,3.592,3.592,0,0,0-1.851-.49,3.682,3.682,0,1,0,0,7.364A3.592,3.592,0,0,0,228.561,51.119Zm6.845-3.262,3.06-3.43H236.63l-2.7,3.094V44.427h-1.5v7h1.5V48.193l2.852,3.234h1.8Zm10.984,2.688a3.721,3.721,0,1,0-2.609,1.064A3.559,3.559,0,0,0,246.39,50.545Zm-4.779-2.618a2.154,2.154,0,0,1,.626-1.582,2.208,2.208,0,0,1,3.089,0,2.312,2.312,0,0,1,0,3.164,2.208,2.208,0,0,1-3.089,0A2.154,2.154,0,0,1,241.611,47.927Zm14.205-1.568a1.8,1.8,0,0,0-.591-1.393,2.383,2.383,0,0,0-1.663-.539h-3.284v7h3.562a2.385,2.385,0,0,0,1.691-.553,1.876,1.876,0,0,0,.591-1.435,1.647,1.647,0,0,0-1.03-1.61,1.637,1.637,0,0,0,.724-1.47h0Zm-1.447.126a0.758,0.758,0,0,1-.918.784h-1.74V45.715h1.74a0.753,0.753,0,0,1,.918.77h0Zm-2.658,3.626v-1.6h1.99a1.077,1.077,0,0,1,.7.2,0.689,0.689,0,0,1,.25.567,0.787,0.787,0,0,1-.946.826h-1.99Z"/>
  <path id="Фигура_8" data-name="Фигура 8" class="cls-5" d="M102.319,6.48m0,21.563h0m0-17.712h0m0,13.862h0m0-8.856a2.31,2.31,0,1,0,2.3,2.31,2.306,2.306,0,0,0-2.3-2.31h0Zm0,3.851a1.54,1.54,0,1,1,1.531-1.54,1.537,1.537,0,0,1-1.531,1.54h0Zm0,0-2.435-5.08a0.77,0.77,0,1,0,0,1.089h0a0.775,0.775,0,0,0,0-1.089h0Zm0,0-1.008,3.54a0.765,0.765,0,1,1-.765-0.77,0.768,0.768,0,0,1,.765.77h0Zm0,0,4.21-4.236a0.766,0.766,0,1,1-.766-0.77,0.768,0.768,0,0,1,.766.77h0Zm0,0,2.752,0.7a0.763,0.763,0,0,0-1.083,0,0.774,0.774,0,0,0,0,1.089h0a0.763,0.763,0,0,0,1.083,0,0.775,0.775,0,0,0,0-1.089h0Zm0,0M99.884,20.1h0a0.763,0.763,0,0,0-1.082,0,0.775,0.775,0,0,0,0,1.089,0.763,0.763,0,0,0,1.082,0,0.776,0.776,0,0,0,0-1.089h0Zm0,0,7.41-2.45a0.766,0.766,0,1,1-.766-0.77,0.768,0.768,0,0,1,.766.77h0Zm0,0-1.457,2.45a0.762,0.762,0,0,0-1.083,0,0.775,0.775,0,0,0,0,1.089,0.763,0.763,0,0,0,1.083,0,0.775,0.775,0,0,0,0-1.089h0Zm0,0-2.752,1.785a0.766,0.766,0,1,1-.766-0.77,0.768,0.768,0,0,1,.766.77h0Zm0,0"/>
</svg>
