<svg xmlns="http://www.w3.org/2000/svg" width="226.969" height="49.656" viewBox="0 0 226.969 49.656">
  <defs>
    <style>
      .cls-1 {
        fill: #858585;
        fill-rule: evenodd;
      }
    </style>
  </defs>
  <path id="интернет-магазин_шин_и_дисков" data-name="интернет-магазин шин и дисков" class="cls-1" d="M404.273,76.9l-9.4-25.2H391.1l-9.4,25.2h3.564l2.052-5.652h11.34l2.052,5.652h3.564Zm-11.3-21.2,4.536,12.42h-9.036Zm35.749,12.744V51.7h-3.312V68.3a5.683,5.683,0,0,1-1.584,4.23,7.352,7.352,0,0,1-9.072,0,5.675,5.675,0,0,1-1.584-4.23V51.7h-3.348v16.74a8.394,8.394,0,0,0,2.646,6.5,10.766,10.766,0,0,0,13.626,0,8.427,8.427,0,0,0,2.628-6.5h0Zm6.659-16.74v3.168h7.416V76.9h3.312V54.871h7.452V51.7h-18.18ZM483.8,64.3a13.05,13.05,0,1,0-22.32,9.252A13.059,13.059,0,0,0,483.8,64.3h0Zm-22.788,0a9.574,9.574,0,0,1,2.79-7,9.91,9.91,0,0,1,13.86,0,10.136,10.136,0,0,1,0,13.968,9.91,9.91,0,0,1-13.86,0,9.528,9.528,0,0,1-2.79-6.966h0Zm30.42-12.6V76.9h9.828a11.188,11.188,0,0,0,8.55-3.654,13.463,13.463,0,0,0,0-17.892,11.19,11.19,0,0,0-8.55-3.654h-9.828Zm3.348,22.032V54.871h6.48a8.119,8.119,0,0,1,6.3,2.7,10.481,10.481,0,0,1,0,13.464,8.119,8.119,0,0,1-6.3,2.7h-6.48ZM539.524,76.9l-5.94-10.08a7.806,7.806,0,0,0,3.762-2.844,7.684,7.684,0,0,0-.846-9.99,7.589,7.589,0,0,0-5.544-2.286h-10.08V76.9h3.348V67.255h5.94l5.652,9.648h3.708Zm-8.568-22.068a4.255,4.255,0,0,1,3.186,1.368,4.607,4.607,0,0,1,1.314,3.312,4.668,4.668,0,0,1-1.314,3.33,4.227,4.227,0,0,1-3.186,1.386h-6.732v-9.4h6.732ZM546.472,76.9h3.348V51.7h-3.348V76.9Zm22.716,0,9.036-25.2h-3.636l-7.272,21.024L560.008,51.7h-3.6l9,25.2h3.78Zm18.935-11.16h10.62V62.611h-10.62v-7.74h11.52V51.7H584.775V76.9h15.048V73.735h-11.7V65.743ZM382.693,95.668V90.4H381.4v7.5h1.05l4.155-5.265V97.9h1.29V90.4h-1.05Zm12.375-2.145h-3.885V90.4h-1.305v7.5h1.305V94.768h3.885V97.9h1.305V90.4h-1.305v3.12Zm2.445-3.12v1.26h2.565V97.9h1.305v-6.24h2.55V90.4h-6.42Zm14.46,4.35a3.94,3.94,0,0,0,.045-0.585,4.045,4.045,0,0,0-1.042-2.8,3.452,3.452,0,0,0-2.693-1.163,3.781,3.781,0,0,0-2.835,1.125,3.881,3.881,0,0,0-1.095,2.82,3.832,3.832,0,0,0,1.118,2.828,3.925,3.925,0,0,0,2.9,1.117,3.664,3.664,0,0,0,3.3-1.695l-1.11-.63a2.347,2.347,0,0,1-2.16,1.095,2.867,2.867,0,0,1-1.792-.555,2.473,2.473,0,0,1-.923-1.56h6.285Zm-2.115-2.76a2.5,2.5,0,0,1,.84,1.62h-5.01a2.491,2.491,0,0,1,2.6-2.175A2.406,2.406,0,0,1,409.858,91.993Zm4.965-.3V90.4h-1.305v10.5h1.305v-4.29a3.182,3.182,0,0,0,2.835,1.485,3.6,3.6,0,0,0,2.685-1.147,4.08,4.08,0,0,0,0-5.595,3.6,3.6,0,0,0-2.685-1.148,3.182,3.182,0,0,0-2.835,1.485h0Zm0.765,4.373a2.773,2.773,0,0,1,0-3.825,2.717,2.717,0,0,1,3.795,0,2.773,2.773,0,0,1,0,3.825A2.717,2.717,0,0,1,415.588,96.066ZM428.2,93.523h-3.885V90.4h-1.305v7.5h1.305V94.768H428.2V97.9h1.305V90.4H428.2v3.12Zm10.485,1.23a3.94,3.94,0,0,0,.045-0.585,4.046,4.046,0,0,0-1.043-2.8A3.45,3.45,0,0,0,435,90.208a3.781,3.781,0,0,0-2.835,1.125,3.881,3.881,0,0,0-1.1,2.82,3.831,3.831,0,0,0,1.117,2.828,3.927,3.927,0,0,0,2.9,1.117,3.664,3.664,0,0,0,3.3-1.695l-1.11-.63a2.347,2.347,0,0,1-2.16,1.095,2.869,2.869,0,0,1-1.793-.555,2.471,2.471,0,0,1-.922-1.56h6.285Zm-2.115-2.76a2.5,2.5,0,0,1,.84,1.62H432.4A2.491,2.491,0,0,1,435,91.438,2.406,2.406,0,0,1,436.573,91.993Zm2.52-1.59v1.26h2.565V97.9h1.305v-6.24h2.55V90.4h-6.42Zm12.7,3.525v-1.26h-5.475v1.26H451.8Zm8.22-3.525-2.355,3.8-2.355-3.8h-1.395v7.5h1.29V92.458l2.385,3.84h0.165l2.385-3.84V97.9h1.275V90.4h-1.4Zm9.6,1.29a3.182,3.182,0,0,0-2.835-1.485,3.6,3.6,0,0,0-2.685,1.148,4.08,4.08,0,0,0,0,5.595,3.6,3.6,0,0,0,2.685,1.147,3.182,3.182,0,0,0,2.835-1.485V97.9h1.305V90.4h-1.305v1.29Zm-4.56,4.373a2.773,2.773,0,0,1,0-3.825,2.717,2.717,0,0,1,3.8,0,2.773,2.773,0,0,1,0,3.825A2.717,2.717,0,0,1,465.058,96.066ZM472.9,90.4v7.5h1.305v-6.24h3.615V90.4H472.9Zm11.97,1.29a3.182,3.182,0,0,0-2.835-1.485,3.6,3.6,0,0,0-2.685,1.148,4.08,4.08,0,0,0,0,5.595,3.6,3.6,0,0,0,2.685,1.147,3.182,3.182,0,0,0,2.835-1.485V97.9h1.305V90.4h-1.305v1.29Zm-4.56,4.373a2.773,2.773,0,0,1,0-3.825,2.717,2.717,0,0,1,3.8,0,2.773,2.773,0,0,1,0,3.825A2.717,2.717,0,0,1,480.313,96.066Zm12.8-3.683a1.985,1.985,0,0,0-.713-1.545,3.211,3.211,0,0,0-4.717,1.02l1.065,0.615a1.689,1.689,0,0,1,1.71-1.065,1.556,1.556,0,0,1,1.012.3,1.038,1.038,0,0,1,.053,1.538,1.294,1.294,0,0,1-.885.277h-0.81v1.185h1.1a1.36,1.36,0,0,1,.907.285,0.918,0.918,0,0,1,.338.735,1.01,1.01,0,0,1-.413.833,2.173,2.173,0,0,1-3.1-.907l-1.1.645a2.956,2.956,0,0,0,3.015,1.8,3.146,3.146,0,0,0,2.13-.653,2.039,2.039,0,0,0,.75-1.6,1.805,1.805,0,0,0-1.245-1.785,1.82,1.82,0,0,0,.9-1.68h0Zm3.045,3.285V90.4h-1.29v7.5h1.05l4.155-5.265V97.9h1.29V90.4h-1.05Zm12.375-2.145h-3.885V90.4h-1.3v7.5h1.3V94.768h3.885V97.9h1.305V90.4h-1.305v3.12Zm16,3.135h-3.18V90.4h-1.3v6.255h-3.18V90.4h-1.3v7.5h10.275V90.4h-1.3v6.255Zm4.59-.99V90.4h-1.29v7.5h1.05l4.155-5.265V97.9h1.29V90.4h-1.05ZM541.5,93.523h-3.885V90.4h-1.3v7.5h1.3V94.768H541.5V97.9H542.8V90.4H541.5v3.12Zm8.325,2.145V90.4h-1.29v7.5h1.05l4.155-5.265V97.9h1.29V90.4h-1.05ZM567.207,90.4h-5.535v3.48a4.649,4.649,0,0,1-.72,2.775h-0.915v3.255h1.29V97.9h5.625v2.01h1.29V96.658h-1.035V90.4Zm-4.245,3.48V91.618h2.955v5.04h-3.48a6.418,6.418,0,0,0,.525-2.775h0Zm7.979,1.785V90.4h-1.29v7.5h1.05l4.155-5.265V97.9h1.29V90.4H575.1Zm12.7,1.9a3.644,3.644,0,0,0,1.38-1.418l-1.11-.645a2.359,2.359,0,0,1-.915.953,2.614,2.614,0,0,1-1.35.353,2.542,2.542,0,0,1-1.882-.765,2.754,2.754,0,0,1,0-3.8,2.693,2.693,0,0,1,3.225-.405,2.223,2.223,0,0,1,.877.96l1.1-.63a3.344,3.344,0,0,0-1.32-1.433,3.962,3.962,0,1,0-2,7.358A3.846,3.846,0,0,0,583.646,97.566Zm5.325-3.532,3.585-3.63h-1.68l-3.24,3.315V90.4h-1.3v7.5h1.3V94.348l3.42,3.555h1.62Zm11.715,0.12a3.787,3.787,0,0,0-1.155-2.805,4.011,4.011,0,0,0-5.6,0,3.945,3.945,0,0,0,2.8,6.75,3.844,3.844,0,0,0,2.8-1.14A3.787,3.787,0,0,0,600.686,94.153Zm-5.835,1.905a2.754,2.754,0,0,1,0-3.81,2.7,2.7,0,0,1,3.765,0,2.67,2.67,0,0,1-1.89,4.575A2.55,2.55,0,0,1,594.851,96.058Zm13.185-3.615a1.908,1.908,0,0,0-.615-1.477,2.486,2.486,0,0,0-1.74-.562h-3.45v7.5h3.75a2.479,2.479,0,0,0,1.778-.593,2.008,2.008,0,0,0,.622-1.523,1.739,1.739,0,0,0-1.155-1.74,1.78,1.78,0,0,0,.81-1.605h0Zm-1.275.09a0.953,0.953,0,0,1-1.14,1h-2.115V91.573h2.115a0.937,0.937,0,0,1,1.14.96h0Zm-3.255,4.185V94.693h2.4a1.316,1.316,0,0,1,.878.263,0.905,0.905,0,0,1,.307.728,0.964,0.964,0,0,1-.307.765,1.29,1.29,0,0,1-.878.27h-2.4Z" transform="translate(-381.406 -51.25)"/>
</svg>
