<svg 
 xmlns="http://www.w3.org/2000/svg"
 xmlns:xlink="http://www.w3.org/1999/xlink"
 width="45px" height="45px">
<path fill-rule="evenodd"  fill="rgb(205, 205, 205)"
 d="M25.535,14.217 L39.006,2.455 L39.006,25.709 L25.535,14.217 ZM0.878,0.776 C1.380,0.297 2.063,0.010 2.798,0.010 L36.205,0.010 C36.950,0.010 37.633,0.297 38.121,0.776 L19.508,16.801 L0.878,0.776 ZM-0.006,25.709 L-0.006,2.469 L13.464,14.217 L-0.006,25.709 ZM19.508,19.603 L24.323,15.353 L38.121,27.224 C37.619,27.703 36.950,27.990 36.205,27.990 L2.798,27.990 C2.049,27.990 1.380,27.703 0.878,27.224 L14.677,15.353 L19.508,19.603 Z"/>
</svg>