<svg xmlns="http://www.w3.org/2000/svg" width="14" height="14" viewBox="0 0 14 14">
  <defs>
    <style>
      .cls-1 {
        fill: #fff;
        fill-rule: evenodd;
      }
    </style>
  </defs>
  <path id="Фигура_1" data-name="Фигура 1" class="cls-1" d="M1299.79,174.748l-3.45-3.463a5.5,5.5,0,0,0,1.37-3.633,5.859,5.859,0,1,0-5.86,5.651,5.934,5.934,0,0,0,3.36-1.024l3.48,3.491a0.759,0.759,0,0,0,.55.226,0.767,0.767,0,0,0,.53-0.206,0.724,0.724,0,0,0,.02-1.042h0Zm-7.94-11.272a4.178,4.178,0,1,1-4.32,4.176,4.259,4.259,0,0,1,4.32-4.176h0Zm0,0" transform="translate(-1286 -162)"/>
</svg>
