<svg xmlns="http://www.w3.org/2000/svg">
  <symbol viewBox="0 0 23.16 23.062" id="winter">
    <path d="M23.16 11.523a.606.606 0 0 0-.61-.605h-.95l.91-.906a.617.617 0 0 0 0-.856.609.609 0 0 0-.86 0l-1.77 1.762h-.9l.91-.906a.6.6 0 0 0 0-.856.609.609 0 0 0-.86 0l-1.76 1.762h-4.22l2.98-2.97h2.5a.605.605 0 1 0 0-1.21h-1.28l.63-.634h2.5a.605.605 0 1 0 0-1.21H19.1l.67-.674a.6.6 0 0 0 0-.856.611.611 0 0 0-.86 0l-.67.674V2.756a.606.606 0 0 0-.61-.606.612.612 0 0 0-.61.606v2.492l-.63.634V4.6a.606.606 0 0 0-.61-.606.612.612 0 0 0-.61.606v2.492l-2.97 2.97v-4.2l1.76-1.763a.603.603 0 0 0-.85-.856l-.91.907v-.9l1.76-1.762a.6.6 0 0 0 0-.856.609.609 0 0 0-.86 0l-.9.906V.586a.612.612 0 0 0-.61-.605.606.606 0 0 0-.61.605v.952l-.91-.906a.609.609 0 0 0-.86 0 .617.617 0 0 0 0 .856l1.77 1.762v.9l-.91-.907a.611.611 0 0 0-.86 0 .617.617 0 0 0 0 .856l1.77 1.763v4.2L8 7.092V4.6a.605.605 0 1 0-1.21 0v1.282l-.64-.634V2.756a.605.605 0 1 0-1.21 0v1.282l-.67-.674a.611.611 0 0 0-.86 0 .6.6 0 0 0 0 .856l.67.674H2.8a.605.605 0 1 0 0 1.21h2.5l.63.634H4.65a.605.605 0 1 0 0 1.21h2.5l2.97 2.97H5.91L4.14 9.156a.603.603 0 0 0-.85.856l.91.906h-.9L1.53 9.156a.609.609 0 0 0-.86 0 .6.6 0 0 0 0 .856l.91.906H.63a.605.605 0 1 0 0 1.21h.95l-.91.907a.6.6 0 0 0 0 .856.62.62 0 0 0 .43.177.6.6 0 0 0 .43-.177l1.77-1.762h.9l-.91.906a.6.6 0 0 0 0 .856.586.586 0 0 0 .43.177.58.58 0 0 0 .42-.177l1.77-1.762h4.21l-2.97 2.97h-2.5a.605.605 0 1 0 0 1.21h1.28l-.63.634H2.8a.605.605 0 1 0 0 1.21h1.28l-.67.673a.606.606 0 0 0 .43 1.034.617.617 0 0 0 .43-.178l.67-.673v1.282a.605.605 0 1 0 1.21 0v-2.492l.64-.634v1.282a.605.605 0 1 0 1.21 0v-2.492l2.98-2.971v4.2l-1.77 1.762a.617.617 0 0 0 0 .856.609.609 0 0 0 .86 0l.91-.906v.9l-1.77 1.762a.605.605 0 0 0 .43 1.033.6.6 0 0 0 .43-.177l.91-.907v.955a.606.606 0 0 0 .61.605.612.612 0 0 0 .61-.605v-.953l.91.907a.603.603 0 0 0 .85-.856l-1.76-1.762v-.9l.91.906a.577.577 0 0 0 .42.178.606.606 0 0 0 .43-1.034l-1.76-1.762v-4.2l2.97 2.971v2.492a.611.611 0 0 0 .61.605.6.6 0 0 0 .61-.605v-1.287l.63.634v2.492a.612.612 0 0 0 .61.6.606.606 0 0 0 .61-.6v-1.282l.67.673a.617.617 0 0 0 .43.178.606.606 0 0 0 .43-1.033l-.67-.674h1.28a.605.605 0 1 0 0-1.21h-2.5l-.63-.634h1.28a.605.605 0 1 0 0-1.21h-2.5l-2.98-2.97h4.22l1.76 1.762a.62.62 0 0 0 .43.177.605.605 0 0 0 .43-1.033l-.91-.906h.9l1.77 1.762a.6.6 0 0 0 .43.177.605.605 0 0 0 .43-1.033l-.91-.906h.95a.606.606 0 0 0 .61-.603z"
      fill="#328dd5" fill-rule="evenodd"></path>
  </symbol>
  <symbol viewBox="0 0 24 22" id="spikes">
    <path d="M.266 22.006s-.581-1.512 0-2.089L10.948.426a1.5 1.5 0 0 1 2.1 0l10.686 19.491c.581.577 0 2.089 0 2.089H.266z" fill-rule="evenodd" fill="#fff" stroke="#f91c1e" stroke-width="2"/>
    <path d="M8.217 18.312h7.32v-6.936h-1.824v5.616h-.924v-5.616h-1.836v5.616h-.912v-5.616H8.217v6.936z" fill="#1f1f1f" fill-rule="evenodd"/>
  </symbol>
  <symbol viewBox="0 0 24.094 24.031" id="sun">
    <path d="M12.053 4.18a7.839 7.839 0 1 1-7.861 7.839 7.85 7.85 0 0 1 7.861-7.839zm0-1.045a.523.523 0 0 0 .524-.522V.522a.524.524 0 0 0-1.048 0v2.091a.523.523 0 0 0 .524.522zm0 17.768a.523.523 0 0 0-.524.522v2.091a.524.524 0 0 0 1.048 0v-2.091a.523.523 0 0 0-.524-.525zm11.529-9.406h-2.1a.523.523 0 1 0 0 1.045h2.1a.523.523 0 1 0 0-1.042zm-20.438.522a.522.522 0 0 0-.524-.522H.52a.523.523 0 1 0 0 1.045h2.1a.523.523 0 0 0 .524-.523zm3.739-7.884a.524.524 0 0 0 .908-.523l-1.048-1.81a.523.523 0 0 0-.907.522zm10.34 15.769a.524.524 0 0 0-.908.522l1.048 1.81a.526.526 0 0 0 .717.192.521.521 0 0 0 .192-.714zm3-12.066a.5.5 0 0 0 .262-.07l1.816-1.045a.523.523 0 1 0-.486-.926l-.038.022-1.816 1.045a.523.523 0 0 0 .262.975zm-16.6 8.432l-1.815 1.045a.523.523 0 0 0 .524.9l1.815-1.045a.523.523 0 1 0-.486-.926l-.038.022zM1.808 6.723l1.815 1.045a.508.508 0 0 0 .261.07.522.522 0 0 0 .262-.975L2.331 5.818a.523.523 0 1 0-.562.882l.038.022zM22.3 17.315l-1.816-1.045a.523.523 0 1 0-.562.882l.038.022 1.816 1.045a.523.523 0 1 0 .524-.905zM16.508 4.326a.527.527 0 0 0 .717-.191l1.048-1.811a.524.524 0 0 0-.908-.522l-1.048 1.81a.522.522 0 0 0 .19.714zM7.6 19.712a.524.524 0 0 0-.715.192l-1.048 1.81a.524.524 0 0 0 .908.522l1.048-1.81a.522.522 0 0 0-.192-.714z"
      fill="#ffd703" fill-rule="evenodd"></path>
  </symbol>
  <symbol viewBox="0 0 16 16" id="cart">
    <path d="M4.8 12.8a1.6 1.6 0 1 0 1.6 1.6 1.6 1.6 0 0 0-1.6-1.6zM0 0v1.6h1.6l2.88 6.078L3.36 9.6a2.817 2.817 0 0 0-.16.8A1.6 1.6 0 0 0 4.8 12h9.6v-1.6H5.12a.17.17 0 0 1-.16-.16v-.08l.72-1.359h5.92a1.459 1.459 0 0 0 1.36-.8l2.88-5.2a.445.445 0 0 0 .16-.4.755.755 0 0 0-.8-.8H3.36l-.72-1.6H0zm12.8 12.8a1.6 1.6 0 1 0 1.6 1.6 1.6 1.6 0 0 0-1.6-1.6zm0 0"
      fill="#f91c1e" fill-rule="evenodd"></path>
  </symbol>
  <symbol viewBox="0 0 14 18" id="user">
    <path d="M7 8.8c2.05 0 3.71-1.971 3.71-4.4S10.16 0 7 0 3.29 1.971 3.29 4.4 4.95 8.8 7 8.8zm0 0l6.99 6.543c-.07-4.235-.63-5.442-4.96-6.205a3.094 3.094 0 0 1-4.06 0C.69 9.894.09 11.082.01 15.206c-.01.337-.01.354-.01.315v.445S1.03 18 7 18s7-2.031 7-2.031v-.329l-.01-.293zm0 0"
      fill="#f91c1e" fill-rule="evenodd"></path>
  </symbol>
  <symbol viewBox="0 0 14 14" id="search">
    <path d="M13.79 12.748l-3.45-3.463a5.5 5.5 0 0 0 1.37-3.633 5.859 5.859 0 1 0-5.86 5.651 5.934 5.934 0 0 0 3.36-1.024l3.48 3.491a.759.759 0 0 0 .55.226.767.767 0 0 0 .53-.206.724.724 0 0 0 .02-1.042zM5.85 1.476a4.178 4.178 0 1 1-4.32 4.176 4.259 4.259 0 0 1 4.32-4.176zm0 0" fill-rule="evenodd"></path>
  </symbol>
  <symbol viewBox="0 0 15 11" id="check">
    <path fill-rule="evenodd" fill="rgb(249, 28, 30)"
  d="M14.931,1.636 L5.634,10.932 C5.552,11.015 5.419,11.015 5.338,10.932 L0.059,5.653 C-0.023,5.572 -0.023,5.439 0.059,5.358 L1.342,4.076 C1.423,3.993 1.556,3.993 1.638,4.076 L5.486,7.923 L13.353,0.058 C13.434,-0.025 13.567,-0.025 13.649,0.058 L14.931,1.340 C15.013,1.422 15.013,1.554 14.931,1.636 L14.931,1.636 Z"/>
  </symbol>
  <symbol viewBox="0 0 5.969 9.94" id="chevron-right">
    <path d="M537.04,1196.73l-1.132,1.16,3.717,3.81-3.717,3.8,1.132,1.16,4.849-4.96Zm0,0" transform="translate(-535.906 -1196.72)"/>
  </symbol>
  <symbol viewBox="0 0 10 18" id="slidenav-left">
    <path d="M1463.87,1949.81a0.676,0.676,0,0,0,.94,0,0.617,0.617,0,0,0,0-.9l-8.22-7.91,8.22-7.92a0.617,0.617,0,0,0,0-.9,0.683,0.683,0,0,0-.94,0l-8.68,8.37a0.634,0.634,0,0,0,0,.9Zm0,0" transform="translate(-1455 -1932)"/>
  </symbol>
  <symbol viewBox="0 0 10 18" id="slidenav-right">
    <path d="M1497.13,1255.81a0.676,0.676,0,0,1-.94,0,0.617,0.617,0,0,1,0-.9l8.21-7.91-8.21-7.92a0.617,0.617,0,0,1,0-.9,0.683,0.683,0,0,1,.94,0l8.68,8.37a0.634,0.634,0,0,1,0,.9Zm0,0" transform="translate(-1496 -1238)"/>
  </symbol>
  <symbol viewBox="0 0 11 16" id="trash">
    <path data-name="Фигура 9" d="M1.29 15.228a.772.772 0 0 0 .74.772h6.94a.779.779 0 0 0 .74-.772l.49-11.332H.8zm5.78-8.517a.311.311 0 0 1 .3-.327h.48a.311.311 0 0 1 .3.327v6.474a.311.311 0 0 1-.3.327h-.48a.311.311 0 0 1-.3-.327V6.711zm-2.11 0a.311.311 0 0 1 .3-.327h.48a.311.311 0 0 1 .3.327v6.474a.311.311 0 0 1-.3.327h-.48a.311.311 0 0 1-.3-.327V6.711zm-2.11 0a.311.311 0 0 1 .3-.327h.48a.311.311 0 0 1 .3.327v6.474a.311.311 0 0 1-.3.327h-.48a.311.311 0 0 1-.3-.327V6.711zm0 0L10.53.824h-3.2V.169A.155.155 0 0 0 7.18 0H3.82a.163.163 0 0 0-.16.169v.655H.47A.488.488 0 0 0 0 1.33v1.587h11V1.33a.489.489 0 0 0-.47-.506zm0 0" fill-rule="evenodd"/>
</symbol>
<symbol viewBox="0 0 19 19" id="close">
  <path fill-rule="evenodd"  fill="rgb(159, 159, 159)"
 d="M19.005,1.894 L17.103,-0.010 L9.510,7.598 L1.909,-0.010 L0.007,1.894 L7.607,9.503 L0.007,17.105 L1.909,19.008 L9.510,11.400 L17.103,19.008 L19.005,17.105 L11.405,9.503 L19.005,1.894 Z"/>
</symbol>

</svg>