<svg 
 xmlns="http://www.w3.org/2000/svg"
 xmlns:xlink="http://www.w3.org/1999/xlink"
 width="45px" height="45px">
<path fill-rule="evenodd"  fill="rgb(205, 205, 205)"
 d="M36.005,18.812 C35.331,14.876 33.473,11.297 30.641,8.465 C27.654,5.486 23.872,3.595 19.700,3.011 L20.122,-0.000 C24.951,0.673 29.326,2.857 32.783,6.314 C36.062,9.601 38.213,13.740 39.000,18.301 L36.005,18.812 ZM27.353,11.597 C29.326,13.578 30.624,16.069 31.095,18.820 L28.100,19.332 C27.735,17.205 26.737,15.274 25.211,13.748 C23.596,12.133 21.551,11.119 19.302,10.802 L19.725,7.791 C22.630,8.197 25.268,9.512 27.353,11.597 ZM12.729,21.271 C14.806,23.820 17.152,26.084 19.952,27.845 C20.552,28.219 21.218,28.494 21.843,28.835 C22.159,29.014 22.379,28.957 22.638,28.689 C23.588,27.715 24.554,26.758 25.519,25.800 C26.786,24.542 28.376,24.542 29.650,25.800 C31.201,27.342 32.751,28.884 34.293,30.434 C35.583,31.733 35.575,33.323 34.277,34.638 C33.400,35.523 32.467,36.367 31.639,37.292 C30.429,38.647 28.920,39.086 27.183,38.988 C24.659,38.850 22.338,38.014 20.098,36.927 C15.123,34.508 10.870,31.157 7.307,26.920 C4.670,23.787 2.495,20.371 1.066,16.524 C0.368,14.665 -0.127,12.758 0.027,10.737 C0.125,9.495 0.587,8.432 1.505,7.564 C2.495,6.622 3.428,5.640 4.402,4.683 C5.668,3.433 7.259,3.433 8.533,4.674 C9.320,5.445 10.091,6.233 10.870,7.012 C11.625,7.775 12.380,8.521 13.135,9.284 C14.466,10.623 14.466,12.181 13.143,13.513 C12.193,14.470 11.252,15.428 10.286,16.361 C10.034,16.613 10.010,16.816 10.140,17.124 C10.781,18.650 11.698,20.005 12.729,21.271 Z"/>
</svg>