<svg xmlns="http://www.w3.org/2000/svg" width="20" height="12" viewBox="0 0 20 12">
  <defs>
    <style>
      .cls-1 {
        fill: #f91c1e;
        fill-rule: evenodd;
      }
    </style>
  </defs>
  <path id="Фигура_1" data-name="Фигура 1" class="cls-1" d="M17.84,9.178L10.369,1.172a0.481,0.481,0,0,0-.738,0L2.16,9.178a0.568,0.568,0,0,0,0,.791l0.8,0.858a0.481,0.481,0,0,0,.738,0L10,4.076l6.3,6.751a0.487,0.487,0,0,0,.368.172,0.492,0.492,0,0,0,.369-0.172l0.8-.858a0.569,0.569,0,0,0,0-.791h0Zm0,0"/>
</svg>
