<svg 
 xmlns="http://www.w3.org/2000/svg"
 xmlns:xlink="http://www.w3.org/1999/xlink"
 width="45px" height="45px">
<path fill-rule="evenodd"  fill="rgb(205, 205, 205)"
 d="M22.490,45.000 C10.063,45.000 -0.015,41.786 -0.015,37.824 C-0.015,34.601 6.644,31.877 15.812,30.972 C16.774,32.366 17.678,33.581 18.428,34.555 C10.988,35.008 6.106,36.624 4.291,37.824 C6.419,39.233 12.743,41.218 22.490,41.218 C32.242,41.218 38.566,39.233 40.694,37.824 C38.879,36.619 33.993,35.003 26.543,34.555 C27.293,33.581 28.194,32.361 29.159,30.968 C38.332,31.877 45.000,34.601 45.000,37.824 C45.000,41.786 34.921,45.000 22.490,45.000 ZM10.697,11.846 C10.697,5.303 15.978,-0.004 22.490,-0.004 C29.002,-0.004 34.282,5.303 34.282,11.846 C34.282,21.169 22.490,35.091 22.490,35.091 C22.490,35.091 10.697,21.220 10.697,11.846 ZM28.308,11.134 C28.308,7.907 25.702,5.293 22.490,5.293 C19.277,5.293 16.677,7.907 16.677,11.134 C16.677,14.362 19.277,16.981 22.490,16.981 C25.702,16.981 28.308,14.362 28.308,11.134 ZM19.631,11.134 C19.631,9.550 20.909,8.263 22.490,8.263 C24.072,8.263 25.349,9.550 25.349,11.134 C25.349,12.723 24.072,14.011 22.490,14.011 C20.909,14.011 19.631,12.723 19.631,11.134 Z"/>
</svg>