<svg xmlns="http://www.w3.org/2000/svg" width="267" height="57" viewBox="0 0 267 57" fill-rule="nonzero">
  <path data-name="Прямоугольник 2" d="M113.417 8.451h9.138l-6.527 27.588H87.305z" fill-rule="nonzero" fill="#98bedb"/>
  <path d="M9.793 23.793H24L16.879 8.439h-.038zm13.8 6.715h6.557v-.981L18.3 3.761h-2.883L3.608 29.527v.981h6.561l1.537-3.32h10.347zm2.774-2.565h-.49l-1.725-3.735H9.643l-1.762 3.734h-.487l9.335-20.333h.225zm-6.748-6.828h-5.477l2.7-6.074zm26.469 3.7c-1.949 0-4.011-1.094-4.011-3.207V4.1h-6.339v17.618c0 5.81 4.986 9.167 10.347 9.167 5.4 0 10.347-3.357 10.347-9.167V4.1h-6.373v17.5c0 2.117-2.059 3.211-3.974 3.211zm0 3.244c-3.749 0-7.423-2.339-7.423-6.451V6.628h.412V21.6c0 3.923 3.449 6.036 7.011 6.036S53.1 25.528 53.1 21.6V6.628h.412V21.6c-.004 4.116-3.678 6.455-7.427 6.455zm23.841-17.923v20.371h6.636V10.136h6.411V4.1H63.481v6.036h6.448zm3.149 17.844V7.269h-7.085V6.93h14.433v.34h-7.048c.037 6.941.075 13.732.075 20.711h-.375zm18.634-10.638c0-14.184 20.357-14.184 20.357 0s-20.357 14.184-20.357 0zm23.618 0c0-18.259-26.917-18.259-26.917 0 0 18.296 26.917 18.296 26.917 0zm-20.019 0c0-9.507 13.159-9.507 13.159 0 0 9.582-13.159 9.619-13.159 0zm16.383 0c0-13.505-19.607-13.769-19.607 0 0 13.807 19.607 13.505 19.607 0z" fill="#2c231a" fill-rule="nonzero"/>
  <path d="M129.429 3.893l-5.836 27.548h10.928c11.788 0 16.253-8.631 16.253-16.473 0-5.636-3.368-11.074-10.888-11.074h-10.457zm2.663 21.045l3.094-14.582h3.214c4.191 0 5.13 2.759 5.13 5.715 0 4.217-3.094 8.867-8.224 8.867h-3.212zm43.945-3.311a11.431 11.431 0 0 0 5.757-8.04c1.057-4.847-1.175-9.774-7.794-9.774-4.034-.039-7.99 0-12.063 0-2 9.261-3.838 18.365-5.835 27.627h7.167l1.841-8.67h3.759l3.055 8.67h7.4l.234-.906zm-9.831-4.727l1.449-6.818h4.974c1.684 0 2.35 1.261 2.35 2.64 0 1.931-1.488 4.178-3.8 4.178h-4.974zm31.725 8.71L201.3 9.687h3.172l1.253-5.833h-13.473L191 9.687h3.173L190.8 25.609h-3.486c-.509 2.286-.705 3.547-1.214 5.833h14.1c.509-2.286.705-3.547 1.214-5.833h-3.485zm23.578-6.345l-.784-7.212L219 3.854h-7.48l-.235 1.064 6.266 26.8h3.329l17.154-26.8.235-1.064h-7.794l-5.091 8.2-3.76 7.212h-.117zm23.7-15.409l-5.836 27.587h17.507l1.292-6.227h-10.3l1.057-4.847h9.165l1.331-6.306h-9.164l.9-4.3h9.948l1.253-5.912h-17.157z" fill="#2f89cf" fill-rule="nonzero"/>
  <path data-name="интернет-магазин шин и дисков" d="M5.066 48.865v-4.438H3.591v7h1.155l3.562-4.452v4.452h1.474v-7H8.627zm12.605-1.652h-3.186v-2.786h-1.5v7h1.5v-2.786h3.186v2.786h1.5v-7h-1.5v2.786zm3.965-2.786v1.456h2.282v5.544h1.5v-5.544h2.268v-1.456h-6.05zm14.97 4.144a4.72 4.72 0 0 0 .056-.63 3.751 3.751 0 0 0-.981-2.618 3.244 3.244 0 0 0-2.511-1.078 3.529 3.529 0 0 0-2.644 1.055 3.613 3.613 0 0 0-1.03 2.625 3.575 3.575 0 0 0 1.043 2.639 3.706 3.706 0 0 0 2.741 1.043 3.437 3.437 0 0 0 3.047-1.526l-1.238-.728a2.035 2.035 0 0 1-1.795.868 2.447 2.447 0 0 1-1.461-.427 1.923 1.923 0 0 1-.765-1.225h5.537zm-4.842-2.492a2.1 2.1 0 0 1 1.391-.462 1.938 1.938 0 0 1 1.99 1.722h-4.09a2.086 2.086 0 0 1 .709-1.26zm9.182-.644v-1.008h-1.5v9.8h1.5v-3.794a2.82 2.82 0 0 0 2.435 1.176 3.263 3.263 0 0 0 2.449-1.064 3.873 3.873 0 0 0 0-5.229 3.254 3.254 0 0 0-2.449-1.071 2.809 2.809 0 0 0-2.435 1.19zm0 2.492a2.194 2.194 0 0 1 .626-1.6 2.259 2.259 0 0 1 3.144 0 2.365 2.365 0 0 1 0 3.206 2.259 2.259 0 0 1-3.144 0 2.193 2.193 0 0 1-.625-1.606zm13.412-.714h-3.185v-2.786h-1.5v7h1.5v-2.786h3.186v2.786h1.5v-7h-1.5v2.786zm11.422 1.358a4.734 4.734 0 0 0 .056-.63 3.751 3.751 0 0 0-.981-2.618 3.244 3.244 0 0 0-2.511-1.078A3.529 3.529 0 0 0 59.7 45.3a3.614 3.614 0 0 0-1.029 2.625 3.576 3.576 0 0 0 1.043 2.639 3.707 3.707 0 0 0 2.741 1.043 3.437 3.437 0 0 0 3.045-1.524l-1.238-.728a2.035 2.035 0 0 1-1.795.868 2.448 2.448 0 0 1-1.461-.427 1.923 1.923 0 0 1-.765-1.225h5.537zm-4.842-2.492a2.1 2.1 0 0 1 1.391-.462 1.938 1.938 0 0 1 1.989 1.722H60.23a2.087 2.087 0 0 1 .709-1.26zm6.662-1.652v1.456h2.282v5.544h1.5v-5.544h2.268v-1.456H67.6zM80.96 47.9v-1.457h-5.148V47.9h5.148zm8.876-3.472l-2.017 3.234-2.019-3.235h-1.529v7h1.461v-4.592l1.99 3.192h.178l2-3.206v4.606h1.461v-7h-1.53zm10.24.994a2.82 2.82 0 0 0-2.435-1.176 3.263 3.263 0 0 0-2.449 1.064 3.873 3.873 0 0 0 0 5.229 3.253 3.253 0 0 0 2.449 1.071 2.809 2.809 0 0 0 2.435-1.19v1.008h1.5v-7h-1.5v.994zm-4.4 2.506a2.194 2.194 0 0 1 .626-1.6 2.259 2.259 0 0 1 3.144 0 2.365 2.365 0 0 1 0 3.206 2.259 2.259 0 0 1-3.144 0 2.193 2.193 0 0 1-.622-1.607zm9.112-3.5v7h1.5v-5.545h3.158v-1.456h-4.661zm12.369.994a2.82 2.82 0 0 0-2.435-1.176 3.265 3.265 0 0 0-2.449 1.064 3.875 3.875 0 0 0 0 5.229 3.254 3.254 0 0 0 2.449 1.071 2.809 2.809 0 0 0 2.435-1.19v1.008h1.5v-7h-1.5v.994zm-4.4 2.506a2.2 2.2 0 0 1 .626-1.6 2.259 2.259 0 0 1 3.145 0 2.365 2.365 0 0 1 0 3.206 2.259 2.259 0 0 1-3.145 0 2.2 2.2 0 0 1-.619-1.607zm13.83-1.638a1.847 1.847 0 0 0-.689-1.449 3.077 3.077 0 0 0-4.5.973l1.225.7a1.451 1.451 0 0 1 1.446-.924 1.223 1.223 0 0 1 .78.231.727.727 0 0 1 .292.595.736.736 0 0 1-.258.595 1.076 1.076 0 0 1-.716.217h-.738v1.33h.988a1.133 1.133 0 0 1 .738.217.714.714 0 0 1 .264.581.767.767 0 0 1-.334.651 1.523 1.523 0 0 1-.918.245 1.549 1.549 0 0 1-1.628-1.05l-1.224.728a2.8 2.8 0 0 0 2.838 1.68 3.062 3.062 0 0 0 2.017-.6 1.874 1.874 0 0 0 .724-1.5 1.716 1.716 0 0 0-1.113-1.666 1.7 1.7 0 0 0 .807-1.554zm4.466 2.576v-4.439h-1.475v7h1.155l3.561-4.452v4.452h1.475v-7h-1.155zm12.6-1.652h-3.186v-2.787h-1.5v7h1.5v-2.786h3.186v2.786h1.5v-7h-1.5v2.786zM161.543 50h-2.616v-5.573h-1.5V50h-2.615v-5.573h-1.5v7h9.739v-7h-1.5V50zm6.177-1.134v-4.439h-1.475v7h1.155l3.562-4.452v4.452h1.474v-7h-1.154zm12.6-1.652h-3.186v-2.787h-1.5v7h1.5v-2.786h3.186v2.786h1.5v-7h-1.5v2.786zm11.116 1.652v-4.439h-1.475v7h1.155l3.562-4.452v4.452h1.475v-7H195zm18.977-4.438h-5.3v3.038a4.355 4.355 0 0 1-.64 2.534h-.849v3.3h1.476v-1.873h4.772V53.3h1.475V50h-.933v-5.573zm-3.826 3.038v-1.653h2.352V50h-2.811a6.244 6.244 0 0 0 .459-2.534zm8.918 1.4v-4.439h-1.474v7h1.154l3.562-4.452v4.452h1.475v-7h-1.155zm13.051 2.254a3.325 3.325 0 0 0 1.28-1.33l-1.294-.742a1.917 1.917 0 0 1-.745.784 2.12 2.12 0 0 1-1.106.294 2.067 2.067 0 0 1-1.537-.63 2.3 2.3 0 0 1 0-3.136 2.067 2.067 0 0 1 1.537-.63 2.113 2.113 0 0 1 1.106.287 1.79 1.79 0 0 1 .717.791l1.294-.756a3.165 3.165 0 0 0-1.252-1.316 3.592 3.592 0 0 0-1.851-.49 3.682 3.682 0 1 0 0 7.364 3.592 3.592 0 0 0 1.856-.491zm6.845-3.262l3.06-3.43h-1.831l-2.7 3.094v-3.095h-1.5v7h1.5v-3.234l2.852 3.234h1.8zm10.984 2.688a3.721 3.721 0 1 0-2.609 1.064 3.559 3.559 0 0 0 2.614-1.065zm-4.779-2.618a2.154 2.154 0 0 1 .626-1.582 2.208 2.208 0 0 1 3.089 0 2.312 2.312 0 0 1 0 3.164 2.208 2.208 0 0 1-3.089 0 2.154 2.154 0 0 1-.621-1.583zm14.205-1.568a1.8 1.8 0 0 0-.591-1.393 2.383 2.383 0 0 0-1.663-.539h-3.284v7h3.562a2.385 2.385 0 0 0 1.691-.553 1.876 1.876 0 0 0 .591-1.435 1.647 1.647 0 0 0-1.03-1.61 1.637 1.637 0 0 0 .724-1.47zm-1.447.126a.758.758 0 0 1-.918.784h-1.74v-1.555h1.74a.753.753 0 0 1 .918.77zm-2.658 3.626v-1.6h1.99a1.077 1.077 0 0 1 .7.2.689.689 0 0 1 .25.567.787.787 0 0 1-.946.826h-1.99z" fill="#6e6e6e" fill-rule="nonzero"/>
  <path data-name="Фигура 8" d="M102.319 15.336999999999998a2.31 2.31 0 1 0 2.3 2.31 2.306 2.306 0 0 0-2.3-2.31zm0 3.851a1.54 1.54 0 1 1 1.531-1.54 1.537 1.537 0 0 1-1.531 1.54zm0 0l-2.435-5.08a.77.77 0 1 0 0 1.089.775.775 0 0 0 0-1.089zm0 0l-1.008 3.54a.765.765 0 1 1-.765-.77.768.768 0 0 1 .765.77zm0 0l4.21-4.236a.766.766 0 1 1-.766-.77.768.768 0 0 1 .766.77zm0 0l2.752.7a.763.763 0 0 0-1.083 0 .774.774 0 0 0 0 1.089.763.763 0 0 0 1.083 0 .775.775 0 0 0 0-1.089zm-2.435.912a.763.763 0 0 0-1.082 0 .775.775 0 0 0 0 1.089.763.763 0 0 0 1.082 0 .776.776 0 0 0 0-1.089zm0 0l7.41-2.45a.766.766 0 1 1-.766-.77.768.768 0 0 1 .766.77zm0 0l-1.457 2.45a.762.762 0 0 0-1.083 0 .775.775 0 0 0 0 1.089.763.763 0 0 0 1.083 0 .775.775 0 0 0 0-1.089zm0 0l-2.752 1.785a.766.766 0 1 1-.766-.77.768.768 0 0 1 .766.77zm0 0" fill="#443e38" fill-rule="nonzero"/>
</svg>
