<svg xmlns="http://www.w3.org/2000/svg" width="24.094" height="24.031" viewBox="0 0 24.094 24.031">
  <defs>
    <style>
      .cls-1 {
        fill: #ffd703;
        fill-rule: evenodd;
      }
    </style>
  </defs>
  <path id="Фигура_6" data-name="Фигура 6" class="cls-1" d="M703.053,771.18a7.839,7.839,0,1,1-7.861,7.839A7.85,7.85,0,0,1,703.053,771.18Zm0-1.045a0.523,0.523,0,0,0,.524-0.522v-2.091a0.524,0.524,0,0,0-1.048,0v2.091A0.523,0.523,0,0,0,703.053,770.135Zm0,17.768a0.523,0.523,0,0,0-.524.522v2.091a0.524,0.524,0,0,0,1.048,0v-2.091A0.523,0.523,0,0,0,703.053,787.9Zm11.529-9.406h-2.1a0.523,0.523,0,1,0,0,1.045h2.1A0.523,0.523,0,1,0,714.582,778.5Zm-20.438.522a0.522,0.522,0,0,0-.524-0.522h-2.1a0.523,0.523,0,1,0,0,1.045h2.1A0.523,0.523,0,0,0,694.144,779.019Zm3.739-7.884a0.524,0.524,0,0,0,.908-0.523l-1.048-1.81a0.523,0.523,0,0,0-.907.522Zm10.34,15.769a0.524,0.524,0,0,0-.908.522l1.048,1.81a0.526,0.526,0,0,0,.717.192,0.521,0.521,0,0,0,.192-0.714Zm3-12.066a0.5,0.5,0,0,0,.262-0.07l1.816-1.045a0.523,0.523,0,1,0-.486-0.926c-0.013.007-.026,0.014-0.038,0.022l-1.816,1.045a0.523,0.523,0,0,0,.262.975h0Zm-16.6,8.432-1.815,1.045a0.523,0.523,0,0,0,.524.9l1.815-1.045a0.523,0.523,0,1,0-.486-0.926l-0.038.022h0Zm-1.815-9.547,1.815,1.045a0.508,0.508,0,0,0,.261.07,0.522,0.522,0,0,0,.262-0.975l-1.815-1.045a0.523,0.523,0,1,0-.562.882c0.012,0.008.025,0.015,0.038,0.022h0ZM713.3,784.315l-1.816-1.045a0.523,0.523,0,1,0-.562.882l0.038,0.022,1.816,1.045a0.523,0.523,0,1,0,.524-0.905h0Zm-5.792-12.989a0.527,0.527,0,0,0,.717-0.191l1.048-1.811a0.524,0.524,0,0,0-.908-0.522l-1.048,1.81A0.522,0.522,0,0,0,707.507,771.326ZM698.6,786.712a0.524,0.524,0,0,0-.715.192l-1.048,1.81a0.524,0.524,0,0,0,.908.522l1.048-1.81a0.522,0.522,0,0,0-.192-0.714h0Z" transform="translate(-691 -767)"/>
</svg>
