<svg xmlns="http://www.w3.org/2000/svg" width="11" height="16" viewBox="0 0 11 16">
  <defs>
    <style>
      .cls-1 {
        fill: #65625f;
        fill-rule: evenodd;
      }
    </style>
  </defs>
  <path id="Фигура_9" data-name="Фигура 9" class="cls-1" d="M1417.29,407.228a0.772,0.772,0,0,0,.74.772h6.94a0.779,0.779,0,0,0,.74-0.772l0.49-11.332h-9.4Zm5.78-8.517a0.311,0.311,0,0,1,.3-0.327h0.48a0.311,0.311,0,0,1,.3.327v6.474a0.311,0.311,0,0,1-.3.327h-0.48a0.311,0.311,0,0,1-.3-0.327v-6.474Zm-2.11,0a0.311,0.311,0,0,1,.3-0.327h0.48a0.311,0.311,0,0,1,.3.327v6.474a0.311,0.311,0,0,1-.3.327h-0.48a0.311,0.311,0,0,1-.3-0.327v-6.474Zm-2.11,0a0.311,0.311,0,0,1,.3-0.327h0.48a0.311,0.311,0,0,1,.3.327v6.474a0.311,0.311,0,0,1-.3.327h-0.48a0.311,0.311,0,0,1-.3-0.327v-6.474Zm0,0,7.68-5.887h-3.2v-0.655a0.155,0.155,0,0,0-.15-0.169h-3.36a0.163,0.163,0,0,0-.16.169v0.655h-3.19a0.488,0.488,0,0,0-.47.506v1.587h11V393.33a0.489,0.489,0,0,0-.47-0.506h0Zm0,0" transform="translate(-1416 -392)"/>
</svg>
