<svg xmlns="http://www.w3.org/2000/svg" width="14" height="18" viewBox="0 0 14 18">
  <defs>
    <style>
      .cls-1 {
        fill: #f91c1e;
        fill-rule: evenodd;
      }
    </style>
  </defs>
  <path id="Фигура_3" data-name="Фигура 3" class="cls-1" d="M1460,57.8c2.05,0,3.71-1.971,3.71-4.4S1463.16,49,1460,49s-3.71,1.971-3.71,4.4,1.66,4.4,3.71,4.4h0Zm0,0,6.99,6.543c-0.07-4.235-.63-5.442-4.96-6.205a3.094,3.094,0,0,1-4.06,0c-4.28.756-4.88,1.944-4.96,6.068-0.01.337-.01,0.354-0.01,0.315v0.445S1454.03,67,1460,67s7-2.031,7-2.031V64.64c0,0.024,0-.023-0.01-0.293h0Zm0,0" transform="translate(-1453 -49)"/>
</svg>
