<svg xmlns="http://www.w3.org/2000/svg" width="23.16" height="23.062" viewBox="0 0 23.16 23.062">
  <defs>
    <style>
      .cls-1 {
        fill: #328dd5;
        fill-rule: evenodd;
      }
    </style>
  </defs>
  <path id="Фигура_7" data-name="Фигура 7" class="cls-1" d="M1301,780.461a0.606,0.606,0,0,0-.61-0.605h-0.95l0.91-.906a0.617,0.617,0,0,0,0-.856,0.609,0.609,0,0,0-.86,0l-1.77,1.762h-0.9l0.91-.906a0.6,0.6,0,0,0,0-.856,0.609,0.609,0,0,0-.86,0l-1.76,1.762h-4.22l2.98-2.97h2.5a0.605,0.605,0,1,0,0-1.21h-1.28l0.63-.634h2.5a0.605,0.605,0,1,0,0-1.21h-1.28l0.67-.674a0.6,0.6,0,0,0,0-.856,0.611,0.611,0,0,0-.86,0l-0.67.674v-1.282a0.606,0.606,0,0,0-.61-0.606,0.612,0.612,0,0,0-.61.606v2.492l-0.63.634v-1.282a0.606,0.606,0,0,0-.61-0.606,0.612,0.612,0,0,0-.61.606v2.492l-2.97,2.97v-4.2l1.76-1.763a0.6,0.6,0,0,0-.85-0.856l-0.91.907v-0.9l1.76-1.762a0.6,0.6,0,0,0,0-.856,0.609,0.609,0,0,0-.86,0l-0.9.906v-0.952a0.612,0.612,0,0,0-.61-0.605,0.606,0.606,0,0,0-.61.605v0.952l-0.91-.906a0.609,0.609,0,0,0-.86,0,0.617,0.617,0,0,0,0,.856l1.77,1.762v0.9l-0.91-.907a0.611,0.611,0,0,0-.86,0,0.617,0.617,0,0,0,0,.856l1.77,1.763V779l-2.98-2.97v-2.492a0.605,0.605,0,1,0-1.21,0v1.282l-0.64-.634v-2.492a0.605,0.605,0,1,0-1.21,0v1.282l-0.67-.674a0.611,0.611,0,0,0-.86,0,0.6,0.6,0,0,0,0,.856l0.67,0.674h-1.28a0.605,0.605,0,1,0,0,1.21h2.5l0.63,0.634h-1.28a0.605,0.605,0,1,0,0,1.21h2.5l2.97,2.97h-4.21l-1.77-1.762a0.6,0.6,0,0,0-.85.856l0.91,0.906h-0.9l-1.77-1.762a0.609,0.609,0,0,0-.86,0,0.6,0.6,0,0,0,0,.856l0.91,0.906h-0.95a0.605,0.605,0,1,0,0,1.21h0.95l-0.91.907a0.6,0.6,0,0,0,0,.856,0.62,0.62,0,0,0,.43.177,0.6,0.6,0,0,0,.43-0.177l1.77-1.762h0.9l-0.91.906a0.6,0.6,0,0,0,0,.856,0.586,0.586,0,0,0,.43.177,0.58,0.58,0,0,0,.42-0.177l1.77-1.762h4.21l-2.97,2.97h-2.5a0.605,0.605,0,1,0,0,1.21h1.28l-0.63.634h-2.5a0.605,0.605,0,1,0,0,1.21h1.28l-0.67.673a0.606,0.606,0,0,0,.43,1.034,0.617,0.617,0,0,0,.43-0.178l0.67-.673v1.282a0.605,0.605,0,1,0,1.21,0v-2.492l0.64-.634v1.282a0.605,0.605,0,1,0,1.21,0v-2.492l2.98-2.971v4.2l-1.77,1.762a0.617,0.617,0,0,0,0,.856,0.609,0.609,0,0,0,.86,0l0.91-.906v0.9l-1.77,1.762a0.605,0.605,0,0,0,.43,1.033,0.6,0.6,0,0,0,.43-0.177l0.91-.907V791.4a0.606,0.606,0,0,0,.61.605,0.612,0.612,0,0,0,.61-0.605v-0.953l0.91,0.907a0.6,0.6,0,0,0,.85-0.856l-1.76-1.762v-0.9l0.91,0.906a0.577,0.577,0,0,0,.42.178,0.606,0.606,0,0,0,.43-1.034l-1.76-1.762v-4.2l2.97,2.971v2.492a0.611,0.611,0,0,0,.61.605,0.6,0.6,0,0,0,.61-0.605V786.1l0.63,0.634v2.492a0.612,0.612,0,0,0,.61.6,0.606,0.606,0,0,0,.61-0.6v-1.282l0.67,0.673a0.617,0.617,0,0,0,.43.178,0.606,0.606,0,0,0,.43-1.033l-0.67-.674h1.28a0.605,0.605,0,1,0,0-1.21h-2.5l-0.63-.634h1.28a0.605,0.605,0,1,0,0-1.21h-2.5l-2.98-2.97h4.22l1.76,1.762a0.62,0.62,0,0,0,.43.177,0.605,0.605,0,0,0,.43-1.033l-0.91-.906h0.9l1.77,1.762a0.6,0.6,0,0,0,.43.177,0.605,0.605,0,0,0,.43-1.033l-0.91-.906h0.95A0.606,0.606,0,0,0,1301,780.461Z" transform="translate(-1277.84 -768.938)"/>
</svg>
